<svg xmlns="http://www.w3.org/2000/svg" width="350" height="50" fill-rule="evenodd" xmlns:v="https://vecta.io/nano"><path d="M10.151 32.933H.003c-.045 2.933.49 5.467 1.602 7.6S4.22 44.422 6.112 45.8s4.073 2.389 6.543 3.033a30.16 30.16 0 0 0 7.645.967c3.249 0 6.109-.378 8.58-1.133s4.54-1.811 6.209-3.167 2.927-2.967 3.772-4.833 1.269-3.889 1.269-6.067c0-2.667-.568-4.856-1.703-6.567s-2.482-3.078-4.039-4.1-3.127-1.767-4.707-2.233l-3.706-.967-7.244-1.867c-1.847-.489-3.294-.978-4.34-1.467s-1.747-1.022-2.103-1.6-.534-1.333-.534-2.267c0-1.022.223-1.867.668-2.533s1.013-1.222 1.703-1.667 1.458-.756 2.303-.933 1.691-.267 2.537-.267c1.291 0 2.482.111 3.572.333s2.059.6 2.904 1.133 1.525 1.267 2.036 2.2.812 2.111.901 3.533h10.149c0-2.756-.523-5.1-1.569-7.033s-2.459-3.522-4.24-4.767-3.817-2.144-6.109-2.7S21.924 0 19.432 0a24.46 24.46 0 0 0-6.41.867c-2.137.578-4.051 1.467-5.742 2.667s-3.06 2.7-4.106 4.5-1.569 3.922-1.569 6.367c0 2.178.412 4.033 1.235 5.567s1.903 2.811 3.238 3.833 2.849 1.856 4.54 2.5a45.7 45.7 0 0 0 5.208 1.633l5.141 1.333c1.691.4 3.205.867 4.54 1.4s2.415 1.2 3.238 2 1.235 1.844 1.235 3.133c0 1.2-.312 2.189-.935 2.967s-1.402 1.389-2.337 1.833-1.936.744-3.005.9-2.07.233-3.005.233c-1.38 0-2.715-.167-4.006-.5s-2.415-.844-3.372-1.533-1.725-1.589-2.303-2.7-.868-2.467-.868-4.067zM65.594 26.4h9.281c-.134-2.222-.668-4.144-1.602-5.767a13.03 13.03 0 0 0-3.639-4.067c-1.491-1.089-3.183-1.9-5.074-2.433s-3.861-.8-5.909-.8c-2.804 0-5.297.467-7.478 1.4s-4.028 2.233-5.542 3.9-2.66 3.644-3.439 5.933-1.168 4.767-1.168 7.433c0 2.578.423 4.944 1.269 7.1s2.025 4.011 3.539 5.567 3.349 2.767 5.508 3.633 4.529 1.3 7.111 1.3c4.585 0 8.346-1.2 11.284-3.6s4.718-5.889 5.341-10.467h-9.147c-.312 2.133-1.079 3.833-2.303 5.1s-2.971 1.9-5.241 1.9c-1.469 0-2.715-.333-3.739-1s-1.836-1.522-2.437-2.567-1.035-2.211-1.302-3.5-.401-2.556-.401-3.8a19.5 19.5 0 0 1 .401-3.9c.267-1.311.723-2.511 1.369-3.6s1.48-1.978 2.504-2.667 2.292-1.033 3.806-1.033c4.051 0 6.387 1.978 7.011 5.933zm19.989 5.133c0-1.378.134-2.733.401-4.067s.723-2.511 1.369-3.533 1.502-1.856 2.571-2.5 2.404-.967 4.006-.967 2.949.322 4.039.967 1.958 1.478 2.604 2.5 1.102 2.2 1.369 3.533.401 2.689.401 4.067-.134 2.722-.401 4.033-.723 2.489-1.369 3.533a7.2 7.2 0 0 1-2.604 2.5c-1.091.622-2.437.933-4.039.933s-2.938-.311-4.006-.933-1.925-1.456-2.571-2.5-1.102-2.222-1.369-3.533-.401-2.656-.401-4.033zm-9.481 0c0 2.756.423 5.244 1.269 7.467s2.048 4.122 3.605 5.7 3.427 2.789 5.608 3.633 4.629 1.267 7.344 1.267 5.174-.422 7.378-1.267 4.084-2.056 5.642-3.633 2.76-3.478 3.605-5.7 1.269-4.711 1.269-7.467-.423-5.256-1.269-7.5-2.048-4.156-3.605-5.733-3.439-2.8-5.642-3.667-4.663-1.3-7.378-1.3-5.163.433-7.344 1.3-4.051 2.089-5.608 3.667-2.76 3.489-3.605 5.733-1.269 4.744-1.269 7.5zm70.999 17.2V14.267h-9.481v18.067c0 3.511-.579 6.033-1.736 7.567s-3.027 2.3-5.608 2.3c-2.27 0-3.85-.7-4.74-2.1s-1.335-3.522-1.335-6.367V14.267h-9.481v21.2c0 2.133.189 4.078.568 5.833s1.035 3.244 1.97 4.467 2.214 2.167 3.839 2.833 3.706 1 6.243 1c2.003 0 3.962-.444 5.875-1.333s3.472-2.333 4.674-4.333h.2v4.8h9.014zm15.983-34.467V3.933h-9.481v10.333h-5.742V20.6h5.742v20.333c0 1.733.289 3.133.868 4.2s1.369 1.889 2.37 2.467 2.159.967 3.472 1.167 2.704.3 4.173.3a63.34 63.34 0 0 0 2.871-.067c.979-.044 1.869-.133 2.671-.267V41.4a13.3 13.3 0 0 1-1.402.2 17 17 0 0 1-1.536.067c-1.602 0-2.671-.267-3.205-.8s-.801-1.6-.801-3.2V20.6h6.944v-6.333h-6.944zm8.238 0v34.467h9.481V33.2c0-1.556.156-3 .467-4.333s.835-2.5 1.569-3.5 1.703-1.789 2.904-2.367 2.671-.867 4.407-.867c.579 0 1.18.033 1.803.1s1.157.144 1.602.233v-8.8c-.757-.222-1.447-.333-2.07-.333-1.202 0-2.359.178-3.472.533a12.73 12.73 0 0 0-3.138 1.5c-.979.644-1.847 1.422-2.604 2.333a11.64 11.64 0 0 0-1.803 2.967h-.134v-6.4h-9.014z" fill="#212529" fill-rule="nonzero"/><path fill-opacity="0" fill="#1400ff" d="M340 40h10v10h-10z"/></svg>